<?xml version="1.0" encoding="UTF-8" standalone="no"?><!DOCTYPE svg PUBLIC "-//W3C//DTD SVG 1.1//EN" "http://www.w3.org/Graphics/SVG/1.1/DTD/svg11.dtd"><svg width="100%" height="100%" viewBox="0 0 490 490" version="1.1" xmlns="http://www.w3.org/2000/svg" xmlns:xlink="http://www.w3.org/1999/xlink" xml:space="preserve" xmlns:serif="http://www.serif.com/" style="fill-rule:evenodd;clip-rule:evenodd;stroke-linejoin:round;stroke-miterlimit:2;"><g><g><path d="M410.103,458.74l-128.242,-105.229l-176.408,0c-58.14,0 -105.453,-48.345 -105.453,-107.756l0,-106.739c0,-59.41 47.313,-107.756 105.453,-107.756l279.094,-0c58.14,-0 105.453,48.346 105.453,107.756l0,106.739c0,49.99 -33.511,92.697 -79.897,104.511l0,108.474Zm-304.65,-396.854c-41.257,-0 -74.828,34.603 -74.828,77.131l0,106.739c0,42.528 33.571,77.131 74.828,77.131l187.354,-0l86.671,71.104l0,-70.043l13.518,-1.6c37.848,-4.456 66.379,-37.384 66.379,-76.592l0,-106.74c0,-42.528 -33.571,-77.131 -74.828,-77.131l-279.094,-0l-0,0.001Z" style="fill:#fff;fill-rule:nonzero;"/></g><g><path d="M87.284,210.524c5.458,3.32 16.778,7.223 25.556,7.223c8.972,0 12.681,-3.125 12.681,-8c0,-4.89 -2.931,-7.223 -14.041,-10.931c-19.709,-6.639 -27.32,-17.361 -27.126,-28.681c0,-17.75 15.223,-31.208 38.82,-31.208c11.125,0 21.085,2.527 26.931,5.458l-5.264,20.486c-4.292,-2.348 -12.486,-5.473 -20.681,-5.473c-7.223,0 -11.32,2.931 -11.32,7.806c0,4.486 3.708,6.834 15.417,10.931c18.139,6.236 25.75,15.417 25.945,29.459c0,17.75 -14.042,30.819 -41.362,30.819c-12.486,0 -23.612,-2.722 -30.819,-6.624l5.263,-21.265Z" style="fill:#fff;fill-rule:nonzero;"/><path d="M172.131,171.496c0,-11.888 -0.389,-22.042 -0.778,-30.431l24.973,0l1.361,12.875l0.583,0c4.097,-6.041 12.486,-15.013 28.875,-15.013c12.292,0 22.042,6.236 26.139,16.18l0.389,0c3.514,-4.875 7.806,-8.778 12.292,-11.499c5.279,-3.125 11.125,-4.68 18.154,-4.68c18.333,0 32.195,12.875 32.195,41.347l0,56.196l-28.875,0l0,-51.891c0,-13.862 -4.501,-21.862 -14.056,-21.862c-6.819,0 -11.709,4.68 -13.653,10.348c-0.778,2.138 -1.166,5.264 -1.166,7.611l0,55.792l-28.875,0l0,-53.459c0,-12.098 -4.292,-20.292 -13.668,-20.292c-7.596,-0 -12.098,5.862 -13.847,10.737c-0.972,2.333 -1.166,5.069 -1.166,7.417l0,55.598l-28.875,-0l0,-64.974l-0.002,-0Z" style="fill:#fff;fill-rule:nonzero;"/><path d="M339.686,210.524c5.458,3.32 16.778,7.223 25.556,7.223c8.972,0 12.681,-3.125 12.681,-8c-0,-4.89 -2.931,-7.223 -14.042,-10.931c-19.709,-6.639 -27.32,-17.361 -27.126,-28.681c-0,-17.75 15.223,-31.208 38.82,-31.208c11.125,0 21.07,2.527 26.931,5.458l-5.264,20.486c-4.292,-2.348 -12.486,-5.473 -20.681,-5.473c-7.223,0 -11.32,2.931 -11.32,7.806c-0,4.486 3.708,6.834 15.417,10.931c18.139,6.236 25.75,15.417 25.945,29.459c-0,17.75 -14.041,30.819 -41.362,30.819c-12.486,0 -23.612,-2.722 -30.819,-6.624l5.264,-21.265Z" style="fill:#fff;fill-rule:nonzero;"/></g></g></svg>