<?xml version="1.0" encoding="UTF-8" standalone="no"?><!DOCTYPE svg PUBLIC "-//W3C//DTD SVG 1.1//EN" "http://www.w3.org/Graphics/SVG/1.1/DTD/svg11.dtd"><svg width="100%" height="100%" viewBox="0 0 24 24" version="1.1" xmlns="http://www.w3.org/2000/svg" xmlns:xlink="http://www.w3.org/1999/xlink" xml:space="preserve" xmlns:serif="http://www.serif.com/" style="fill-rule:evenodd;clip-rule:evenodd;stroke-linecap:round;stroke-linejoin:round;"><path d="M22,4.18c0,-1.203 -0.977,-2.18 -2.18,-2.18l-15.64,0c-1.203,0 -2.18,0.977 -2.18,2.18l0,15.64c0,1.203 0.977,2.18 2.18,2.18l15.64,0c1.203,0 2.18,-0.977 2.18,-2.18l0,-15.64Z" style="fill:none;stroke:#a9bdff;stroke-width:2px;"/><path d="M7,2l0,20" style="fill:none;fill-rule:nonzero;stroke:#a9bdff;stroke-width:2px;"/><path d="M17,2l0,20" style="fill:none;fill-rule:nonzero;stroke:#a9bdff;stroke-width:2px;"/><path d="M2,12l20,0" style="fill:none;fill-rule:nonzero;stroke:#a9bdff;stroke-width:2px;"/><path d="M2,7l5,0" style="fill:none;fill-rule:nonzero;stroke:#a9bdff;stroke-width:2px;"/><path d="M2,17l5,0" style="fill:none;fill-rule:nonzero;stroke:#a9bdff;stroke-width:2px;"/><path d="M17,17l5,0" style="fill:none;fill-rule:nonzero;stroke:#a9bdff;stroke-width:2px;"/><path d="M17,7l5,0" style="fill:none;fill-rule:nonzero;stroke:#a9bdff;stroke-width:2px;"/></svg>