<?xml version="1.0" encoding="UTF-8" standalone="no"?><!DOCTYPE svg PUBLIC "-//W3C//DTD SVG 1.1//EN" "http://www.w3.org/Graphics/SVG/1.1/DTD/svg11.dtd"><svg width="100%" height="100%" viewBox="0 0 24 24" version="1.1" xmlns="http://www.w3.org/2000/svg" xmlns:xlink="http://www.w3.org/1999/xlink" xml:space="preserve" xmlns:serif="http://www.serif.com/" style="fill-rule:evenodd;clip-rule:evenodd;stroke-linecap:round;stroke-linejoin:round;"><path d="M14.7,6.3c-0.379,0.386 -0.379,1.014 -0,1.4l1.6,1.6c0.386,0.379 1.014,0.379 1.4,0l3.77,-3.77c0.352,0.777 0.534,1.621 0.534,2.474c-0,3.291 -2.709,6 -6,6c-0.853,-0 -1.697,-0.182 -2.474,-0.534l-6.91,6.91c-0.398,0.398 -0.938,0.621 -1.5,0.621c-1.164,0 -2.121,-0.957 -2.121,-2.121c-0,-0.562 0.223,-1.102 0.621,-1.5l6.91,-6.91c-0.352,-0.777 -0.534,-1.621 -0.534,-2.474c0,-3.291 2.709,-6 6,-6c0.853,0 1.697,0.182 2.474,0.534l-3.77,3.77Z" style="fill:none;fill-rule:nonzero;stroke:#a9bdff;stroke-width:2px;"/></svg>